<svg data-v-423bf9ae="" xmlns="http://www.w3.org/2000/svg" viewBox="0 0 166.77892376944595 60" class="font"><!----><!----><defs data-v-423bf9ae=""><linearGradient data-v-423bf9ae="" gradientTransform="rotate(25)" id="f6d1da8e-5fe0-469c-857b-a9d37c62686a" x1="0%" y1="0%" x2="100%" y2="0%"><stop data-v-423bf9ae="" offset="0%" style="stop-color: rgb(0, 10, 104); stop-opacity: 1;"></stop><stop data-v-423bf9ae="" offset="100%" style="stop-color: rgb(0, 196, 238); stop-opacity: 1;"></stop></linearGradient></defs><g data-v-423bf9ae="" id="6d231ad1-87ff-4e2c-a865-c03faf6b639c" fill="url(#f6d1da8e-5fe0-469c-857b-a9d37c62686a)" transform="matrix(4.392386579079429,0,0,4.392386579079429,0.0000034473082735075877,-9.66325139867579)"><path d="M8.33 5.54L8.33 5.54L8.33 5.54Q8.23 5.54 8.17 5.48L8.17 5.48L8.17 5.48Q8.11 5.42 8.11 5.35L8.11 5.35L8.11 5.35Q8.11 5.28 8.18 5.15L8.18 5.15L8.18 5.15Q8.25 5.03 8.25 4.91L8.25 4.91L8.25 4.91Q8.25 4.59 7.92 4.44L7.92 4.44L7.92 4.44Q7.59 4.30 7.24 4.30L7.24 4.30L7.24 4.30Q6.20 4.30 5.08 5.00L5.08 5.00L5.08 5.00Q3.95 5.70 3.75 6.68L3.75 6.68L3.75 6.68Q3.82 7.27 4.33 7.78L4.33 7.78L4.33 7.78Q4.84 8.29 5.52 8.66L5.52 8.66L5.52 8.66Q6.19 9.03 6.85 9.41L6.85 9.41L6.85 9.41Q7.50 9.79 7.95 10.30L7.95 10.30L7.95 10.30Q8.40 10.82 8.40 11.36L8.40 11.36L8.40 11.36Q8.40 11.90 8.01 12.41L8.01 12.41L8.01 12.41Q7.62 12.92 7.23 13.27L7.23 13.27L7.23 13.27Q6.85 13.62 6.85 13.64L6.85 13.64L6.85 13.64Q6.85 13.66 6.89 13.66L6.89 13.66L6.89 13.66Q7.74 13.66 9.23 12.73L9.23 12.73L9.37 12.63L9.37 12.63Q9.46 12.57 9.51 12.57L9.51 12.57L9.51 12.57Q9.56 12.57 9.62 12.66L9.62 12.66L9.62 12.66Q9.67 12.74 9.67 12.84L9.67 12.84L9.67 12.84Q9.67 12.94 9.49 13.03L9.49 13.03L9.49 13.03Q8.68 13.80 6.46 14.50L6.46 14.50L6.46 14.50Q4.24 15.20 2.45 15.20L2.45 15.20L2.45 15.20Q0 15.20 0 13.78L0 13.78L0 13.78Q0 13.57 0.42 13.17L0.42 13.17L0.42 13.17Q1.06 12.59 1.20 12.59L1.20 12.59L1.20 12.59Q1.34 12.59 1.92 12.94L1.92 12.94L1.92 12.94Q2.49 13.29 3.36 13.64L3.36 13.64L3.36 13.64Q4.23 13.99 5.08 13.99L5.08 13.99L5.08 13.99Q5.94 13.99 6.39 13.45L6.39 13.45L6.39 13.45Q6.85 12.92 6.85 12.36L6.85 12.36L6.85 12.36Q6.85 11.80 6.37 11.35L6.37 11.35L6.37 11.35Q5.89 10.91 5.21 10.56L5.21 10.56L5.21 10.56Q4.54 10.22 3.85 9.86L3.85 9.86L3.85 9.86Q3.16 9.49 2.69 8.97L2.69 8.97L2.69 8.97Q2.21 8.46 2.21 7.84L2.21 7.84L2.21 7.84Q2.21 6.85 3.32 5.75L3.32 5.75L3.32 5.75Q4.42 4.66 5.85 3.99L5.85 3.99L5.85 3.99Q7.28 3.32 8.29 3.32L8.29 3.32L8.29 3.32Q9.55 3.32 9.55 4.16L9.55 4.16L9.55 4.16Q9.55 4.66 9.09 5.10L9.09 5.10L9.09 5.10Q8.64 5.54 8.33 5.54ZM10.05 14.20L10.05 14.20L10.05 14.20Q10.11 14.17 10.54 13.87L10.54 13.87L10.54 13.87Q10.98 13.58 11.38 13.32L11.38 13.32L11.38 13.32Q11.79 13.06 12.29 12.83L12.29 12.83L12.29 12.83Q12.80 12.60 13.03 12.60L13.03 12.60L13.03 12.60Q13.27 12.60 13.38 12.74L13.38 12.74L13.38 12.74Q13.51 12.94 13.69 13.34L13.69 13.34L13.69 13.34Q13.87 13.75 13.87 13.83L13.87 13.83L13.87 13.83Q13.87 13.92 13.86 13.96L13.86 13.96L13.86 13.96Q13.82 14.07 13.78 14.10L13.78 14.10L13.78 14.10Q13.61 14.18 13.53 14.22L13.53 14.22L13.53 14.22Q13.45 14.27 12.77 14.69L12.77 14.69L12.77 14.69Q10.86 15.86 10.67 15.86L10.67 15.86L10.67 15.86Q10.39 15.86 10.11 15.28L10.11 15.28L10.11 15.28Q9.83 14.70 9.83 14.51L9.83 14.51L9.83 14.51Q9.83 14.32 10.05 14.20ZM11.79 9.32L11.79 9.32L11.93 12.32L11.93 12.32Q11.93 12.59 11.76 12.82L11.76 12.82L11.76 12.82Q11.59 13.05 11.31 13.05L11.31 13.05L11.31 13.05Q11.19 13.05 11.19 12.85L11.19 12.85L11.19 12.85Q11.19 10.72 11.08 8.96L11.08 8.96L11.08 8.96Q10.98 7.20 10.98 4.89L10.98 4.89L10.98 4.89Q10.98 4.66 11.07 4.61L11.07 4.61L11.07 4.61Q11.35 4.42 11.47 4.42L11.47 4.42L11.47 4.42Q11.59 4.42 11.62 4.45L11.62 4.45L11.62 4.45Q11.68 4.55 11.68 5.31L11.68 5.31L11.68 5.31Q11.68 6.08 11.79 9.32ZM9.07 5.24L9.31 3.82L9.31 3.82Q9.32 3.72 10.09 3.32L10.09 3.32L10.09 3.32Q12.22 2.20 12.68 2.20L12.68 2.20L12.68 2.20Q12.82 2.20 12.85 2.25L12.85 2.25L12.85 2.25Q12.87 2.31 12.96 2.53L12.96 2.53L12.96 2.53Q13.06 2.74 13.12 2.92L13.12 2.92L13.12 2.92Q13.17 3.09 13.17 3.23L13.17 3.23L13.17 3.23Q13.17 3.37 12.98 3.47L12.98 3.47L12.98 3.47Q12.94 3.50 12.42 3.73L12.42 3.73L12.42 3.73Q11.90 3.96 11.37 4.21L11.37 4.21L11.37 4.21Q10.01 4.83 9.66 5.10L9.66 5.10L9.66 5.10Q9.31 5.38 9.19 5.38L9.19 5.38L9.19 5.38Q9.07 5.38 9.07 5.24L9.07 5.24ZM22.30 3.70L22.30 3.70Q22.90 3.70 23.20 3.96L23.20 3.96L23.20 3.96Q23.49 4.23 23.49 4.65L23.49 4.65L23.49 4.65Q23.49 5.08 23.14 5.39L23.14 5.39L23.14 5.39Q22.79 5.70 22.58 5.70L22.58 5.70L22.58 5.70Q22.37 5.70 22.36 5.50L22.36 5.50L22.36 5.50Q22.33 5.17 21.92 4.87L21.92 4.87L21.92 4.87Q21.50 4.58 21.07 4.58L21.07 4.58L21.07 4.58Q19.96 4.58 18.82 5.63L18.82 5.63L18.82 5.63Q17.67 6.68 16.98 8.04L16.98 8.04L16.98 8.04Q16.30 9.39 16.30 10.33L16.30 10.33L16.30 10.33Q16.30 11.27 16.70 11.86L16.70 11.86L16.70 11.86Q17.09 12.46 17.86 12.46L17.86 12.46L17.86 12.46Q19.10 12.46 20.54 10.29L20.54 10.29L20.54 10.29Q21.21 9.30 21.90 7.38L21.90 7.38L21.90 7.38Q22.15 6.69 22.16 6.68L22.16 6.68L22.16 6.68Q22.27 6.38 22.53 6.38L22.53 6.38L22.53 6.38Q22.65 6.38 22.73 6.46L22.73 6.46L22.73 6.46Q22.81 6.54 22.81 6.64L22.81 6.64L22.81 6.64Q22.81 6.75 22.76 6.87L22.76 6.87L22.76 6.87Q22.36 8.36 22.36 9.71L22.36 9.71L22.36 9.71Q22.36 11.06 22.82 11.96L22.82 11.96L22.82 11.96Q23.28 12.85 24.05 12.85L24.05 12.85L24.05 12.85Q24.44 12.85 24.75 12.60L24.75 12.60L24.75 12.60Q24.85 12.52 24.95 12.52L24.95 12.52L24.95 12.52Q25.12 12.52 25.12 12.67L25.12 12.67L25.12 12.67Q25.12 13.44 24.21 14.10L24.21 14.10L24.21 14.10Q23.30 14.77 22.40 14.77L22.40 14.77L22.40 14.77Q20.96 14.77 20.96 12.78L20.96 12.78L20.96 12.78Q20.96 11.98 21.16 10.99L21.16 10.99L21.16 10.99Q21.36 10.00 21.36 9.96L21.36 9.96L21.36 9.96Q21.36 9.93 21.31 9.93L21.31 9.93L21.31 9.93Q21.25 9.93 21.18 10.05L21.18 10.05L21.18 10.05Q20.38 12.04 19.00 13.39L19.00 13.39L19.00 13.39Q17.61 14.74 16.45 14.74L16.45 14.74L16.45 14.74Q15.29 14.74 14.78 13.85L14.78 13.85L14.78 13.85Q14.43 13.24 14.43 12.36L14.43 12.36L14.43 12.36Q14.43 10.63 15.62 8.59L15.62 8.59L15.62 8.59Q16.80 6.55 18.67 5.12L18.67 5.12L18.67 5.12Q20.54 3.70 22.30 3.70L22.30 3.70ZM33.05 9.23L33.05 9.23L33.10 6.13L33.10 6.13Q33.08 6.03 32.99 6.03L32.99 6.03L32.99 6.03Q32.90 6.03 32.83 6.13L32.83 6.13L32.83 6.13Q32.14 7.84 31.10 10.84L31.10 10.84L31.10 10.84Q30.06 13.85 30.01 14L30.01 14L30.01 14Q29.96 14.15 29.74 14.37L29.74 14.37L29.74 14.37Q29.51 14.59 29.34 14.59L29.34 14.59L29.34 14.59Q29.18 14.59 29.18 14.32L29.18 14.32L29.18 14.32Q29.16 14.22 29.13 13.39L29.13 13.39L29.13 13.39Q29.11 12.56 29.05 11.69L29.05 11.69L29.05 11.69Q28.99 10.82 28.90 9.89L28.90 9.89L28.90 9.89Q28.81 8.96 28.64 8.36L28.64 8.36L28.64 8.36Q28.48 7.77 28.27 7.77L28.27 7.77L28.27 7.77Q27.90 7.77 26.21 13.51L26.21 13.51L26.21 13.51Q25.98 14.29 25.97 14.32L25.97 14.32L25.97 14.32Q25.91 14.50 25.71 14.64L25.71 14.64L25.71 14.64Q25.51 14.77 25.33 14.77L25.33 14.77L25.33 14.77Q25.17 14.77 25.17 14.55L25.17 14.55L25.17 14.55Q25.27 11.66 25.27 9.77L25.27 9.77L25.27 9.77Q25.27 6.20 25.16 4.97L25.16 4.97L25.12 4.51L25.12 4.51Q25.12 4.41 25.31 4.22L25.31 4.22L25.31 4.22Q25.51 4.03 25.68 4.03L25.68 4.03L25.68 4.03Q25.84 4.03 25.84 4.34L25.84 4.34L25.84 4.44L25.87 5.61L25.87 6.19L25.87 6.19Q25.87 11.52 25.80 12.64L25.80 12.64L25.80 12.64Q25.80 12.89 25.84 12.89L25.84 12.89L25.84 12.89Q25.89 12.89 27.01 9.47L27.01 9.47L27.01 9.47Q28.14 6.05 28.27 5.63L28.27 5.63L28.27 5.63Q28.39 5.21 28.59 4.99L28.59 4.99L28.59 4.99Q28.78 4.77 29.01 4.77L29.01 4.77L29.01 4.77Q29.33 4.77 29.54 6.61L29.54 6.61L29.54 6.61Q29.75 8.44 29.87 10.28L29.87 10.28L29.87 10.28Q29.99 12.11 30.05 12.11L30.05 12.11L30.05 12.11Q30.11 12.11 30.42 11.31L30.42 11.31L30.42 11.31Q30.73 10.51 31.13 9.38L31.13 9.38L31.13 9.38Q31.53 8.25 31.92 7.11L31.92 7.11L31.92 7.11Q32.89 4.40 32.98 4.45L32.98 4.45L32.98 4.45Q32.96 4.44 33.07 4.34L33.07 4.34L33.07 4.34Q33.40 4.06 33.61 4.03L33.61 4.03L33.61 4.03Q33.92 4.07 33.92 4.41L33.92 4.41L33.92 4.77L33.92 4.77Q33.92 5.82 33.96 6.45L33.96 6.45L33.96 6.45Q34.38 13.44 37.09 13.44L37.09 13.44L37.09 13.44Q37.31 13.44 37.49 13.31L37.49 13.31L37.49 13.31Q37.67 13.19 37.74 13.19L37.74 13.19L37.74 13.19Q37.80 13.19 37.88 13.27L37.88 13.27L37.88 13.27Q37.97 13.36 37.97 13.45L37.97 13.45L37.97 13.45Q37.97 13.82 37.20 14.31L37.20 14.31L37.20 14.31Q36.44 14.81 35.71 14.81L35.71 14.81L35.71 14.81Q33.05 14.81 33.05 9.23Z"></path></g><!----><!----></svg>